<mxfile host="app.diagrams.net" modified="2023-05-20T12:25:34.785Z" agent="Mozilla/5.0 (Windows NT 10.0; Win64; x64) AppleWebKit/537.36 (KHTML, like Gecko) Chrome/113.0.0.0 Safari/537.36" version="21.3.2" etag="HhzyEM_oVOecH3ysg8nv" type="github">
  <diagram name="Page-1" id="9graWBvuCULCfNL5Ab-F">
    <mxGraphModel>
      <root>
        <mxCell id="0" />
        <mxCell id="1" parent="0" />
      </root>
    </mxGraphModel>
  </diagram>
</mxfile>
